<svg width="15" height="15" viewBox="0 0 15 15" fill="none" xmlns="http://www.w3.org/2000/svg">
<g clip-path="url(#clip0)">
<path d="M9.3749 8.12509C9.02929 8.12509 8.74995 8.40512 8.74995 8.75005V11.2501C8.74995 11.5944 8.46991 11.8751 8.12488 11.8751H6.2499V2.50015C6.2499 1.9664 5.9099 1.48953 5.39869 1.31204L5.21364 1.25012H8.12488C8.46991 1.25012 8.74995 1.53073 8.74995 1.87519V3.75017C8.74995 4.0951 9.02929 4.37513 9.3749 4.37513C9.72051 4.37513 9.99986 4.0951 9.99986 3.75017V1.87519C9.99986 0.84146 9.15861 0.000213623 8.12488 0.000213623H1.40624C1.38243 0.000213623 1.36252 0.0108565 1.3394 0.0139464C1.3093 0.0114287 1.28058 0.000213623 1.25003 0.000213623C0.56064 0.000213623 0 0.560739 0 1.25012V12.5C0 13.0338 0.34 13.5106 0.851203 13.6881L4.61249 14.9419C4.73998 14.9813 4.86678 15.0001 4.99999 15.0001C5.68937 15.0001 6.2499 14.4394 6.2499 13.75V13.1251H8.12488C9.15861 13.1251 9.99986 12.2838 9.99986 11.2501V8.75005C9.99986 8.40512 9.72051 8.12509 9.3749 8.12509Z" fill="#FF6B6B" fill-opacity="0.7"/>
<path d="M14.8167 5.80824L12.3167 3.30831C12.1381 3.12955 11.8692 3.07577 11.6355 3.17258C11.4024 3.26951 11.2499 3.49759 11.2499 3.75016V5.62514H8.74995C8.40491 5.62514 8.12488 5.90506 8.12488 6.2501C8.12488 6.59513 8.40491 6.87505 8.74995 6.87505H11.2499V8.75003C11.2499 9.0026 11.4024 9.23068 11.6355 9.32761C11.8692 9.42443 12.1381 9.37064 12.3167 9.192L14.8167 6.69195C15.0611 6.44762 15.0611 6.05257 14.8167 5.80824Z" fill="#FF6B6B" fill-opacity="0.7"/>
</g>
<defs>
<clipPath id="clip0">
<rect width="15" height="15" fill="white"/>
</clipPath>
</defs>
</svg>
