<svg width="100" height="40" viewBox="0 0 200 40" fill="none" xmlns="http://www.w3.org/2000/svg">
<path d="M85.8983 0.644468C85.6835 0.398956 85.3459 0.214823 84.9163 0.122756C84.4866 0.030689 83.8728 0 83.1056 0H75.1265V34.9854L63.4647 2.57787C63.1271 1.74927 62.6975 1.1048 62.2065 0.675157C61.6847 0.245512 60.9789 0.030689 60.0275 0.030689H49.1637L35.7526 36.0288V3.22234C35.7526 2.57787 35.7219 2.02547 35.6605 1.62652C35.5992 1.22756 35.4764 0.88998 35.2616 0.644468C35.0468 0.398956 34.7092 0.214823 34.2795 0.122756C33.8499 0.030689 33.2361 0 32.4689 0H24.6739V14.9455H11.1401V3.22234C11.1401 2.57787 11.1094 2.02547 11.048 1.62652C10.9866 1.22756 10.8639 0.920669 10.6491 0.644468C10.4342 0.398956 10.0967 0.214823 9.66701 0.122756C9.23737 0.030689 8.62359 0 7.85637 0H0V36.4585C0 37.103 0.0306889 37.6554 0.0920668 38.0543C0.153445 38.4533 0.306889 38.7908 0.521712 39.0364C0.736534 39.2819 1.04342 39.466 1.50376 39.5581C1.9334 39.6194 2.54718 39.6808 3.3144 39.6808H11.1708V23.9988H24.7046V36.4585C24.7046 37.103 24.7353 37.6554 24.7967 38.0543C24.858 38.4533 24.9808 38.7908 25.1956 39.0364C25.4104 39.2819 25.748 39.466 26.1777 39.5581C26.6073 39.6194 27.2211 39.6808 27.9883 39.6808H34.433H43.3941C44.3455 39.6808 45.0513 39.466 45.5424 39.0364C46.0334 38.6067 46.463 37.9622 46.8313 37.1336L48.6113 32.7758H62.3906L64.0785 37.1336C64.3854 37.9622 64.815 38.6067 65.3367 39.0364C65.8584 39.466 66.595 39.6808 67.5156 39.6808H76.9064L76.8758 39.5888C77.3054 39.6501 77.8271 39.6808 78.5023 39.6808H86.4814V3.22234C86.4814 2.57787 86.4507 2.02547 86.42 1.62652C86.2359 1.22756 86.1131 0.920669 85.8983 0.644468ZM51.5267 23.9988L55.639 10.2501L59.5058 23.9988H51.5267Z" fill="#58595B"/>
<path d="M123.891 0C121.528 0 119.963 1.01274 119.165 3.0689L111.554 27.6508L103.851 3.0689C103.053 1.01274 101.488 0 99.1556 0H90.8696L103.636 36.3971C104.035 37.5633 104.68 38.4226 105.6 38.9136C106.521 39.4353 107.534 39.6808 108.7 39.6808H118.582L132.33 0H123.891Z" fill="#58595B"/>
<path d="M199.908 1.62651C199.846 1.22756 199.723 0.889979 199.509 0.644467C199.294 0.398956 198.987 0.214822 198.527 0.122756C198.097 0.0306889 197.514 0 196.716 0H189.842V26.9142C189.565 26.0549 189.136 24.9194 188.553 23.477C187.939 22.0653 187.294 20.5002 186.527 18.8737C185.791 17.2165 184.993 15.5286 184.134 13.7793C183.274 12.0607 182.507 10.4342 181.74 8.93048C181.003 7.42672 180.328 6.13778 179.745 5.03298C179.162 3.92818 178.763 3.16096 178.517 2.79269C177.904 1.81065 177.259 1.07411 176.584 0.644467C175.909 0.214822 175.019 0 173.883 0H162.344V34.9547L150.683 2.54718C150.345 1.71858 149.915 1.07411 149.424 0.644467C148.964 0.214822 148.227 0 147.307 0H136.443L121.651 39.6808H130.612C131.563 39.6808 132.269 39.466 132.76 39.0363C133.251 38.6067 133.681 37.9622 134.049 37.1336L135.829 32.7758H149.608L151.296 37.1336C151.603 37.9622 152.033 38.6067 152.555 39.0363C153.076 39.466 153.782 39.6808 154.734 39.6808H164.124L164.094 39.5887C164.523 39.6501 165.045 39.6808 165.72 39.6808H172.748V13.1042C173.024 13.9021 173.423 14.9148 173.945 16.1117C174.466 17.3086 175.08 18.6282 175.755 20.0706C176.431 21.5129 177.167 23.0167 177.934 24.5818C178.702 26.147 179.499 27.6814 180.236 29.1545C181.003 30.6582 181.74 32.0392 182.476 33.3589C183.213 34.6478 183.857 35.814 184.379 36.796C185.453 38.7294 187.018 39.7115 189.013 39.7115H200V3.22234C199.969 2.57787 199.969 2.05616 199.908 1.62651ZM138.775 23.9987L142.888 10.2501L146.754 23.9987H138.775Z" fill="#58595B"/>
</svg>
